<svg xmlns="http://www.w3.org/2000/svg" width="108" height="108" viewBox="0 0 108 108">
  <defs>
    <radialGradient id="g8a" cx="54" cy="54" r="38" gradientUnits="userSpaceOnUse">
      <stop offset="0" stop-color="#78909C"/>
      <stop offset="1" stop-color="#37474F"/>
    </radialGradient>
    <radialGradient id="g8b" cx="50" cy="50" r="14" gradientUnits="userSpaceOnUse">
      <stop offset="0" stop-color="#4FC3F7"/>
      <stop offset="1" stop-color="#0277BD"/>
    </radialGradient>
  </defs>
  <rect width="108" height="108" fill="#0D0D0D"/>
  <!-- Tire -->
  <path d="M54,20 A34,34 0,1,1 53.99,20 Z M54,28 A26,26 0,1,0 54.01,28 Z" fill="url(#g8a)"/>
  <!-- Highlight -->
  <path d="M54,20 A34,34 0,1,1 53.99,20 Z M54,24 A30,30 0,1,0 54.01,24 Z" fill="white" opacity="0.08"/>
  <!-- Hub motor -->
  <circle cx="54" cy="54" r="12" fill="url(#g8b)"/>
  <!-- Pedals -->
  <rect x="20" y="52" width="22" height="4" rx="2" fill="#4FC3F7"/>
  <rect x="66" y="52" width="22" height="4" rx="2" fill="#4FC3F7"/>
  <!-- Axle -->
  <circle cx="54" cy="54" r="4" fill="white"/>
</svg>
